<?xml version="1.0" encoding="UTF-8" standalone="no"?>
<!DOCTYPE svg PUBLIC "-//W3C//DTD SVG 1.1//EN"
 "http://www.w3.org/Graphics/SVG/1.1/DTD/svg11.dtd">
<!-- Generated by graphviz version 12.2.1 (20241206.2353)
 -->
<!-- Title: YOLO_Arch Pages: 1 -->
<svg width="198pt" height="1108pt"
 viewBox="0.00 0.00 198.00 1107.81" xmlns="http://www.w3.org/2000/svg" xmlns:xlink="http://www.w3.org/1999/xlink">
<g id="graph0" class="graph" transform="scale(1 1) rotate(0) translate(4 1103.81)">
<title>YOLO_Arch</title>
<polygon fill="white" stroke="none" points="-4,4 -4,-1103.81 194,-1103.81 194,4 -4,4"/>
<g id="clust1" class="cluster">
<title>cluster_row0</title>
</g>
<g id="clust2" class="cluster">
<title>cluster_row1</title>
</g>
<g id="clust3" class="cluster">
<title>cluster_row2</title>
</g>
<!-- n0 -->
<g id="node1" class="node">
<title>n0</title>
<ellipse fill="none" stroke="black" cx="95" cy="-1054.82" rx="64.35" ry="28.99"/>
<text text-anchor="middle" x="95" y="-1058.02" font-family="Times New Roman,serif" font-size="14.00">0: Conv</text>
<text text-anchor="middle" x="95" y="-1041.52" font-family="Times New Roman,serif" font-size="14.00">Params: 1856</text>
</g>
<!-- n1 -->
<g id="node2" class="node">
<title>n1</title>
<ellipse fill="none" stroke="black" cx="95" cy="-953.84" rx="69.12" ry="28.99"/>
<text text-anchor="middle" x="95" y="-957.04" font-family="Times New Roman,serif" font-size="14.00">1: Conv</text>
<text text-anchor="middle" x="95" y="-940.54" font-family="Times New Roman,serif" font-size="14.00">Params: 73984</text>
</g>
<!-- n0&#45;&gt;n1 -->
<g id="edge1" class="edge">
<title>n0&#45;&gt;n1</title>
<path fill="none" stroke="black" d="M95,-1025.45C95,-1015.82 95,-1004.88 95,-994.53"/>
<polygon fill="black" stroke="black" points="98.5,-994.72 95,-984.72 91.5,-994.72 98.5,-994.72"/>
</g>
<!-- n2 -->
<g id="node3" class="node">
<title>n2</title>
<ellipse fill="none" stroke="black" cx="95" cy="-852.85" rx="73.89" ry="28.99"/>
<text text-anchor="middle" x="95" y="-856.05" font-family="Times New Roman,serif" font-size="14.00">2: C3k2</text>
<text text-anchor="middle" x="95" y="-839.55" font-family="Times New Roman,serif" font-size="14.00">Params: 173824</text>
</g>
<!-- n1&#45;&gt;n2 -->
<g id="edge2" class="edge">
<title>n1&#45;&gt;n2</title>
<path fill="none" stroke="black" d="M95,-924.47C95,-914.84 95,-903.9 95,-893.55"/>
<polygon fill="black" stroke="black" points="98.5,-893.74 95,-883.74 91.5,-893.74 98.5,-893.74"/>
</g>
<!-- n3 -->
<g id="node4" class="node">
<title>n3</title>
<ellipse fill="none" stroke="black" cx="95" cy="-751.87" rx="73.89" ry="28.99"/>
<text text-anchor="middle" x="95" y="-755.07" font-family="Times New Roman,serif" font-size="14.00">3: Conv</text>
<text text-anchor="middle" x="95" y="-738.57" font-family="Times New Roman,serif" font-size="14.00">Params: 590336</text>
</g>
<!-- n2&#45;&gt;n3 -->
<g id="edge3" class="edge">
<title>n2&#45;&gt;n3</title>
<path fill="none" stroke="black" d="M95,-823.49C95,-813.86 95,-802.92 95,-792.57"/>
<polygon fill="black" stroke="black" points="98.5,-792.75 95,-782.75 91.5,-792.75 98.5,-792.75"/>
</g>
<!-- n4 -->
<g id="node5" class="node">
<title>n4</title>
<ellipse fill="none" stroke="black" cx="95" cy="-650.89" rx="73.89" ry="28.99"/>
<text text-anchor="middle" x="95" y="-654.09" font-family="Times New Roman,serif" font-size="14.00">4: C3k2</text>
<text text-anchor="middle" x="95" y="-637.59" font-family="Times New Roman,serif" font-size="14.00">Params: 691712</text>
</g>
<!-- n3&#45;&gt;n4 -->
<g id="edge4" class="edge">
<title>n3&#45;&gt;n4</title>
<path fill="none" stroke="black" d="M95,-722.51C95,-712.88 95,-701.93 95,-691.59"/>
<polygon fill="black" stroke="black" points="98.5,-691.77 95,-681.77 91.5,-691.77 98.5,-691.77"/>
</g>
<!-- n5 -->
<g id="node6" class="node">
<title>n5</title>
<ellipse fill="none" stroke="black" cx="95" cy="-549.91" rx="78.67" ry="28.99"/>
<text text-anchor="middle" x="95" y="-553.11" font-family="Times New Roman,serif" font-size="14.00">5: Conv</text>
<text text-anchor="middle" x="95" y="-536.61" font-family="Times New Roman,serif" font-size="14.00">Params: 2360320</text>
</g>
<!-- n4&#45;&gt;n5 -->
<g id="edge5" class="edge">
<title>n4&#45;&gt;n5</title>
<path fill="none" stroke="black" d="M95,-621.52C95,-611.89 95,-600.95 95,-590.6"/>
<polygon fill="black" stroke="black" points="98.5,-590.79 95,-580.79 91.5,-590.79 98.5,-590.79"/>
</g>
<!-- n6 -->
<g id="node7" class="node">
<title>n6</title>
<ellipse fill="none" stroke="black" cx="95" cy="-448.92" rx="78.67" ry="28.99"/>
<text text-anchor="middle" x="95" y="-452.12" font-family="Times New Roman,serif" font-size="14.00">6: C3k2</text>
<text text-anchor="middle" x="95" y="-435.62" font-family="Times New Roman,serif" font-size="14.00">Params: 2234368</text>
</g>
<!-- n5&#45;&gt;n6 -->
<g id="edge6" class="edge">
<title>n5&#45;&gt;n6</title>
<path fill="none" stroke="black" d="M95,-520.54C95,-510.91 95,-499.97 95,-489.62"/>
<polygon fill="black" stroke="black" points="98.5,-489.8 95,-479.8 91.5,-489.8 98.5,-489.8"/>
</g>
<!-- n7 -->
<g id="node8" class="node">
<title>n7</title>
<ellipse fill="none" stroke="black" cx="95" cy="-347.94" rx="78.67" ry="28.99"/>
<text text-anchor="middle" x="95" y="-351.14" font-family="Times New Roman,serif" font-size="14.00">7: Conv</text>
<text text-anchor="middle" x="95" y="-334.64" font-family="Times New Roman,serif" font-size="14.00">Params: 2360320</text>
</g>
<!-- n6&#45;&gt;n7 -->
<g id="edge7" class="edge">
<title>n6&#45;&gt;n7</title>
<path fill="none" stroke="black" d="M95,-419.56C95,-409.93 95,-398.99 95,-388.64"/>
<polygon fill="black" stroke="black" points="98.5,-388.82 95,-378.82 91.5,-388.82 98.5,-388.82"/>
</g>
<!-- n8 -->
<g id="node9" class="node">
<title>n8</title>
<ellipse fill="none" stroke="black" cx="95" cy="-246.96" rx="78.67" ry="28.99"/>
<text text-anchor="middle" x="95" y="-250.16" font-family="Times New Roman,serif" font-size="14.00">8: C3k2</text>
<text text-anchor="middle" x="95" y="-233.66" font-family="Times New Roman,serif" font-size="14.00">Params: 2234368</text>
</g>
<!-- n7&#45;&gt;n8 -->
<g id="edge8" class="edge">
<title>n7&#45;&gt;n8</title>
<path fill="none" stroke="black" d="M95,-318.58C95,-308.95 95,-298 95,-287.65"/>
<polygon fill="black" stroke="black" points="98.5,-287.84 95,-277.84 91.5,-287.84 98.5,-287.84"/>
</g>
<!-- n9 -->
<g id="node10" class="node">
<title>n9</title>
<ellipse fill="none" stroke="black" cx="95" cy="-145.97" rx="78.67" ry="28.99"/>
<text text-anchor="middle" x="95" y="-149.17" font-family="Times New Roman,serif" font-size="14.00">9: C2PSA</text>
<text text-anchor="middle" x="95" y="-132.67" font-family="Times New Roman,serif" font-size="14.00">Params: 1455616</text>
</g>
<!-- n8&#45;&gt;n9 -->
<g id="edge9" class="edge">
<title>n8&#45;&gt;n9</title>
<path fill="none" stroke="black" d="M95,-217.59C95,-207.96 95,-197.02 95,-186.67"/>
<polygon fill="black" stroke="black" points="98.5,-186.86 95,-176.86 91.5,-186.86 98.5,-186.86"/>
</g>
<!-- n10 -->
<g id="node11" class="node">
<title>n10</title>
<ellipse fill="none" stroke="black" cx="95" cy="-44.99" rx="73.89" ry="28.99"/>
<text text-anchor="middle" x="95" y="-48.19" font-family="Times New Roman,serif" font-size="14.00">10: Classify</text>
<text text-anchor="middle" x="95" y="-31.69" font-family="Times New Roman,serif" font-size="14.00">Params: 666887</text>
</g>
<!-- n9&#45;&gt;n10 -->
<g id="edge10" class="edge">
<title>n9&#45;&gt;n10</title>
<path fill="none" stroke="black" d="M95,-116.61C95,-106.98 95,-96.04 95,-85.69"/>
<polygon fill="black" stroke="black" points="98.5,-85.87 95,-75.87 91.5,-85.87 98.5,-85.87"/>
</g>
</g>
</svg>
