<?xml version="1.0" encoding="UTF-8" standalone="no"?>
<!DOCTYPE svg PUBLIC "-//W3C//DTD SVG 1.1//EN"
 "http://www.w3.org/Graphics/SVG/1.1/DTD/svg11.dtd">
<!-- Generated by graphviz version 12.2.1 (20241206.2353)
 -->
<!-- Title: YOLO_Arch Pages: 1 -->
<svg width="198pt" height="2320pt"
 viewBox="0.00 0.00 198.00 2319.60" xmlns="http://www.w3.org/2000/svg" xmlns:xlink="http://www.w3.org/1999/xlink">
<g id="graph0" class="graph" transform="scale(1 1) rotate(0) translate(4 2315.6)">
<title>YOLO_Arch</title>
<polygon fill="white" stroke="none" points="-4,4 -4,-2315.6 194,-2315.6 194,4 -4,4"/>
<g id="clust1" class="cluster">
<title>cluster_row0</title>
</g>
<g id="clust2" class="cluster">
<title>cluster_row1</title>
</g>
<g id="clust3" class="cluster">
<title>cluster_row2</title>
</g>
<g id="clust4" class="cluster">
<title>cluster_row3</title>
</g>
<g id="clust5" class="cluster">
<title>cluster_row4</title>
</g>
<!-- n0 -->
<g id="node1" class="node">
<title>n0</title>
<ellipse fill="none" stroke="black" cx="95" cy="-2266.61" rx="64.35" ry="28.99"/>
<text text-anchor="middle" x="95" y="-2269.81" font-family="Times New Roman,serif" font-size="14.00">0: Conv</text>
<text text-anchor="middle" x="95" y="-2253.31" font-family="Times New Roman,serif" font-size="14.00">Params: 1392</text>
</g>
<!-- n1 -->
<g id="node2" class="node">
<title>n1</title>
<ellipse fill="none" stroke="black" cx="95" cy="-2165.63" rx="69.12" ry="28.99"/>
<text text-anchor="middle" x="95" y="-2168.83" font-family="Times New Roman,serif" font-size="14.00">1: Conv</text>
<text text-anchor="middle" x="95" y="-2152.33" font-family="Times New Roman,serif" font-size="14.00">Params: 41664</text>
</g>
<!-- n0&#45;&gt;n1 -->
<g id="edge1" class="edge">
<title>n0&#45;&gt;n1</title>
<path fill="none" stroke="black" d="M95,-2237.25C95,-2227.62 95,-2216.67 95,-2206.33"/>
<polygon fill="black" stroke="black" points="98.5,-2206.51 95,-2196.51 91.5,-2206.51 98.5,-2206.51"/>
</g>
<!-- n2 -->
<g id="node3" class="node">
<title>n2</title>
<ellipse fill="none" stroke="black" cx="95" cy="-2064.65" rx="73.89" ry="28.99"/>
<text text-anchor="middle" x="95" y="-2067.85" font-family="Times New Roman,serif" font-size="14.00">2: C2f</text>
<text text-anchor="middle" x="95" y="-2051.35" font-family="Times New Roman,serif" font-size="14.00">Params: 111360</text>
</g>
<!-- n1&#45;&gt;n2 -->
<g id="edge2" class="edge">
<title>n1&#45;&gt;n2</title>
<path fill="none" stroke="black" d="M95,-2136.26C95,-2126.64 95,-2115.69 95,-2105.34"/>
<polygon fill="black" stroke="black" points="98.5,-2105.53 95,-2095.53 91.5,-2105.53 98.5,-2105.53"/>
</g>
<!-- n3 -->
<g id="node4" class="node">
<title>n3</title>
<ellipse fill="none" stroke="black" cx="95" cy="-1963.66" rx="73.89" ry="28.99"/>
<text text-anchor="middle" x="95" y="-1966.86" font-family="Times New Roman,serif" font-size="14.00">3: Conv</text>
<text text-anchor="middle" x="95" y="-1950.36" font-family="Times New Roman,serif" font-size="14.00">Params: 166272</text>
</g>
<!-- n2&#45;&gt;n3 -->
<g id="edge3" class="edge">
<title>n2&#45;&gt;n3</title>
<path fill="none" stroke="black" d="M95,-2035.28C95,-2025.65 95,-2014.71 95,-2004.36"/>
<polygon fill="black" stroke="black" points="98.5,-2004.55 95,-1994.55 91.5,-2004.55 98.5,-2004.55"/>
</g>
<!-- n4 -->
<g id="node5" class="node">
<title>n4</title>
<ellipse fill="none" stroke="black" cx="95" cy="-1862.68" rx="73.89" ry="28.99"/>
<text text-anchor="middle" x="95" y="-1865.88" font-family="Times New Roman,serif" font-size="14.00">4: C2f</text>
<text text-anchor="middle" x="95" y="-1849.38" font-family="Times New Roman,serif" font-size="14.00">Params: 813312</text>
</g>
<!-- n3&#45;&gt;n4 -->
<g id="edge4" class="edge">
<title>n3&#45;&gt;n4</title>
<path fill="none" stroke="black" d="M95,-1934.3C95,-1924.67 95,-1913.73 95,-1903.38"/>
<polygon fill="black" stroke="black" points="98.5,-1903.56 95,-1893.56 91.5,-1903.56 98.5,-1903.56"/>
</g>
<!-- n5 -->
<g id="node6" class="node">
<title>n5</title>
<ellipse fill="none" stroke="black" cx="95" cy="-1761.7" rx="73.89" ry="28.99"/>
<text text-anchor="middle" x="95" y="-1764.9" font-family="Times New Roman,serif" font-size="14.00">5: Conv</text>
<text text-anchor="middle" x="95" y="-1748.4" font-family="Times New Roman,serif" font-size="14.00">Params: 664320</text>
</g>
<!-- n4&#45;&gt;n5 -->
<g id="edge5" class="edge">
<title>n4&#45;&gt;n5</title>
<path fill="none" stroke="black" d="M95,-1833.32C95,-1823.69 95,-1812.74 95,-1802.4"/>
<polygon fill="black" stroke="black" points="98.5,-1802.58 95,-1792.58 91.5,-1802.58 98.5,-1802.58"/>
</g>
<!-- n6 -->
<g id="node7" class="node">
<title>n6</title>
<ellipse fill="none" stroke="black" cx="95" cy="-1660.72" rx="78.67" ry="28.99"/>
<text text-anchor="middle" x="95" y="-1663.92" font-family="Times New Roman,serif" font-size="14.00">6: C2f</text>
<text text-anchor="middle" x="95" y="-1647.42" font-family="Times New Roman,serif" font-size="14.00">Params: 3248640</text>
</g>
<!-- n5&#45;&gt;n6 -->
<g id="edge6" class="edge">
<title>n5&#45;&gt;n6</title>
<path fill="none" stroke="black" d="M95,-1732.33C95,-1722.7 95,-1711.76 95,-1701.41"/>
<polygon fill="black" stroke="black" points="98.5,-1701.6 95,-1691.6 91.5,-1701.6 98.5,-1701.6"/>
</g>
<!-- n7 -->
<g id="node8" class="node">
<title>n7</title>
<ellipse fill="none" stroke="black" cx="95" cy="-1559.73" rx="78.67" ry="28.99"/>
<text text-anchor="middle" x="95" y="-1562.93" font-family="Times New Roman,serif" font-size="14.00">7: Conv</text>
<text text-anchor="middle" x="95" y="-1546.43" font-family="Times New Roman,serif" font-size="14.00">Params: 1991808</text>
</g>
<!-- n6&#45;&gt;n7 -->
<g id="edge7" class="edge">
<title>n6&#45;&gt;n7</title>
<path fill="none" stroke="black" d="M95,-1631.35C95,-1621.72 95,-1610.78 95,-1600.43"/>
<polygon fill="black" stroke="black" points="98.5,-1600.61 95,-1590.61 91.5,-1600.61 98.5,-1600.61"/>
</g>
<!-- n8 -->
<g id="node9" class="node">
<title>n8</title>
<ellipse fill="none" stroke="black" cx="95" cy="-1458.75" rx="78.67" ry="28.99"/>
<text text-anchor="middle" x="95" y="-1461.95" font-family="Times New Roman,serif" font-size="14.00">8: C2f</text>
<text text-anchor="middle" x="95" y="-1445.45" font-family="Times New Roman,serif" font-size="14.00">Params: 3985920</text>
</g>
<!-- n7&#45;&gt;n8 -->
<g id="edge8" class="edge">
<title>n7&#45;&gt;n8</title>
<path fill="none" stroke="black" d="M95,-1530.37C95,-1520.74 95,-1509.8 95,-1499.45"/>
<polygon fill="black" stroke="black" points="98.5,-1499.63 95,-1489.63 91.5,-1499.63 98.5,-1499.63"/>
</g>
<!-- n9 -->
<g id="node10" class="node">
<title>n9</title>
<ellipse fill="none" stroke="black" cx="95" cy="-1357.77" rx="73.89" ry="28.99"/>
<text text-anchor="middle" x="95" y="-1360.97" font-family="Times New Roman,serif" font-size="14.00">9: SPPF</text>
<text text-anchor="middle" x="95" y="-1344.47" font-family="Times New Roman,serif" font-size="14.00">Params: 831168</text>
</g>
<!-- n8&#45;&gt;n9 -->
<g id="edge9" class="edge">
<title>n8&#45;&gt;n9</title>
<path fill="none" stroke="black" d="M95,-1429.39C95,-1419.76 95,-1408.81 95,-1398.46"/>
<polygon fill="black" stroke="black" points="98.5,-1398.65 95,-1388.65 91.5,-1398.65 98.5,-1398.65"/>
</g>
<!-- n10 -->
<g id="node11" class="node">
<title>n10</title>
<ellipse fill="none" stroke="black" cx="95" cy="-1256.78" rx="65.41" ry="28.99"/>
<text text-anchor="middle" x="95" y="-1259.98" font-family="Times New Roman,serif" font-size="14.00">10: Upsample</text>
<text text-anchor="middle" x="95" y="-1243.48" font-family="Times New Roman,serif" font-size="14.00">Params: 0</text>
</g>
<!-- n9&#45;&gt;n10 -->
<g id="edge10" class="edge">
<title>n9&#45;&gt;n10</title>
<path fill="none" stroke="black" d="M95,-1328.4C95,-1318.77 95,-1307.83 95,-1297.48"/>
<polygon fill="black" stroke="black" points="98.5,-1297.67 95,-1287.67 91.5,-1297.67 98.5,-1297.67"/>
</g>
<!-- n11 -->
<g id="node12" class="node">
<title>n11</title>
<ellipse fill="none" stroke="black" cx="95" cy="-1155.8" rx="53.21" ry="28.99"/>
<text text-anchor="middle" x="95" y="-1159" font-family="Times New Roman,serif" font-size="14.00">11: Concat</text>
<text text-anchor="middle" x="95" y="-1142.5" font-family="Times New Roman,serif" font-size="14.00">Params: 0</text>
</g>
<!-- n10&#45;&gt;n11 -->
<g id="edge11" class="edge">
<title>n10&#45;&gt;n11</title>
<path fill="none" stroke="black" d="M95,-1227.42C95,-1217.79 95,-1206.85 95,-1196.5"/>
<polygon fill="black" stroke="black" points="98.5,-1196.68 95,-1186.68 91.5,-1196.68 98.5,-1196.68"/>
</g>
<!-- n12 -->
<g id="node13" class="node">
<title>n12</title>
<ellipse fill="none" stroke="black" cx="95" cy="-1054.82" rx="78.67" ry="28.99"/>
<text text-anchor="middle" x="95" y="-1058.02" font-family="Times New Roman,serif" font-size="14.00">12: C2f</text>
<text text-anchor="middle" x="95" y="-1041.52" font-family="Times New Roman,serif" font-size="14.00">Params: 1993728</text>
</g>
<!-- n11&#45;&gt;n12 -->
<g id="edge12" class="edge">
<title>n11&#45;&gt;n12</title>
<path fill="none" stroke="black" d="M95,-1126.44C95,-1116.81 95,-1105.86 95,-1095.52"/>
<polygon fill="black" stroke="black" points="98.5,-1095.7 95,-1085.7 91.5,-1095.7 98.5,-1095.7"/>
</g>
<!-- n13 -->
<g id="node14" class="node">
<title>n13</title>
<ellipse fill="none" stroke="black" cx="95" cy="-953.84" rx="65.41" ry="28.99"/>
<text text-anchor="middle" x="95" y="-957.04" font-family="Times New Roman,serif" font-size="14.00">13: Upsample</text>
<text text-anchor="middle" x="95" y="-940.54" font-family="Times New Roman,serif" font-size="14.00">Params: 0</text>
</g>
<!-- n12&#45;&gt;n13 -->
<g id="edge13" class="edge">
<title>n12&#45;&gt;n13</title>
<path fill="none" stroke="black" d="M95,-1025.45C95,-1015.82 95,-1004.88 95,-994.53"/>
<polygon fill="black" stroke="black" points="98.5,-994.72 95,-984.72 91.5,-994.72 98.5,-994.72"/>
</g>
<!-- n14 -->
<g id="node15" class="node">
<title>n14</title>
<ellipse fill="none" stroke="black" cx="95" cy="-852.85" rx="53.21" ry="28.99"/>
<text text-anchor="middle" x="95" y="-856.05" font-family="Times New Roman,serif" font-size="14.00">14: Concat</text>
<text text-anchor="middle" x="95" y="-839.55" font-family="Times New Roman,serif" font-size="14.00">Params: 0</text>
</g>
<!-- n13&#45;&gt;n14 -->
<g id="edge14" class="edge">
<title>n13&#45;&gt;n14</title>
<path fill="none" stroke="black" d="M95,-924.47C95,-914.84 95,-903.9 95,-893.55"/>
<polygon fill="black" stroke="black" points="98.5,-893.74 95,-883.74 91.5,-893.74 98.5,-893.74"/>
</g>
<!-- n15 -->
<g id="node16" class="node">
<title>n15</title>
<ellipse fill="none" stroke="black" cx="95" cy="-751.87" rx="73.89" ry="28.99"/>
<text text-anchor="middle" x="95" y="-755.07" font-family="Times New Roman,serif" font-size="14.00">15: C2f</text>
<text text-anchor="middle" x="95" y="-738.57" font-family="Times New Roman,serif" font-size="14.00">Params: 517632</text>
</g>
<!-- n14&#45;&gt;n15 -->
<g id="edge15" class="edge">
<title>n14&#45;&gt;n15</title>
<path fill="none" stroke="black" d="M95,-823.49C95,-813.86 95,-802.92 95,-792.57"/>
<polygon fill="black" stroke="black" points="98.5,-792.75 95,-782.75 91.5,-792.75 98.5,-792.75"/>
</g>
<!-- n16 -->
<g id="node17" class="node">
<title>n16</title>
<ellipse fill="none" stroke="black" cx="95" cy="-650.89" rx="73.89" ry="28.99"/>
<text text-anchor="middle" x="95" y="-654.09" font-family="Times New Roman,serif" font-size="14.00">16: Conv</text>
<text text-anchor="middle" x="95" y="-637.59" font-family="Times New Roman,serif" font-size="14.00">Params: 332160</text>
</g>
<!-- n15&#45;&gt;n16 -->
<g id="edge16" class="edge">
<title>n15&#45;&gt;n16</title>
<path fill="none" stroke="black" d="M95,-722.51C95,-712.88 95,-701.93 95,-691.59"/>
<polygon fill="black" stroke="black" points="98.5,-691.77 95,-681.77 91.5,-691.77 98.5,-691.77"/>
</g>
<!-- n17 -->
<g id="node18" class="node">
<title>n17</title>
<ellipse fill="none" stroke="black" cx="95" cy="-549.91" rx="53.21" ry="28.99"/>
<text text-anchor="middle" x="95" y="-553.11" font-family="Times New Roman,serif" font-size="14.00">17: Concat</text>
<text text-anchor="middle" x="95" y="-536.61" font-family="Times New Roman,serif" font-size="14.00">Params: 0</text>
</g>
<!-- n16&#45;&gt;n17 -->
<g id="edge17" class="edge">
<title>n16&#45;&gt;n17</title>
<path fill="none" stroke="black" d="M95,-621.52C95,-611.89 95,-600.95 95,-590.6"/>
<polygon fill="black" stroke="black" points="98.5,-590.79 95,-580.79 91.5,-590.79 98.5,-590.79"/>
</g>
<!-- n18 -->
<g id="node19" class="node">
<title>n18</title>
<ellipse fill="none" stroke="black" cx="95" cy="-448.92" rx="78.67" ry="28.99"/>
<text text-anchor="middle" x="95" y="-452.12" font-family="Times New Roman,serif" font-size="14.00">18: C2f</text>
<text text-anchor="middle" x="95" y="-435.62" font-family="Times New Roman,serif" font-size="14.00">Params: 1846272</text>
</g>
<!-- n17&#45;&gt;n18 -->
<g id="edge18" class="edge">
<title>n17&#45;&gt;n18</title>
<path fill="none" stroke="black" d="M95,-520.54C95,-510.91 95,-499.97 95,-489.62"/>
<polygon fill="black" stroke="black" points="98.5,-489.8 95,-479.8 91.5,-489.8 98.5,-489.8"/>
</g>
<!-- n19 -->
<g id="node20" class="node">
<title>n19</title>
<ellipse fill="none" stroke="black" cx="95" cy="-347.94" rx="78.67" ry="28.99"/>
<text text-anchor="middle" x="95" y="-351.14" font-family="Times New Roman,serif" font-size="14.00">19: Conv</text>
<text text-anchor="middle" x="95" y="-334.64" font-family="Times New Roman,serif" font-size="14.00">Params: 1327872</text>
</g>
<!-- n18&#45;&gt;n19 -->
<g id="edge19" class="edge">
<title>n18&#45;&gt;n19</title>
<path fill="none" stroke="black" d="M95,-419.56C95,-409.93 95,-398.99 95,-388.64"/>
<polygon fill="black" stroke="black" points="98.5,-388.82 95,-378.82 91.5,-388.82 98.5,-388.82"/>
</g>
<!-- n20 -->
<g id="node21" class="node">
<title>n20</title>
<ellipse fill="none" stroke="black" cx="95" cy="-246.96" rx="53.21" ry="28.99"/>
<text text-anchor="middle" x="95" y="-250.16" font-family="Times New Roman,serif" font-size="14.00">20: Concat</text>
<text text-anchor="middle" x="95" y="-233.66" font-family="Times New Roman,serif" font-size="14.00">Params: 0</text>
</g>
<!-- n19&#45;&gt;n20 -->
<g id="edge20" class="edge">
<title>n19&#45;&gt;n20</title>
<path fill="none" stroke="black" d="M95,-318.58C95,-308.95 95,-298 95,-287.65"/>
<polygon fill="black" stroke="black" points="98.5,-287.84 95,-277.84 91.5,-287.84 98.5,-287.84"/>
</g>
<!-- n21 -->
<g id="node22" class="node">
<title>n21</title>
<ellipse fill="none" stroke="black" cx="95" cy="-145.97" rx="78.67" ry="28.99"/>
<text text-anchor="middle" x="95" y="-149.17" font-family="Times New Roman,serif" font-size="14.00">21: C2f</text>
<text text-anchor="middle" x="95" y="-132.67" font-family="Times New Roman,serif" font-size="14.00">Params: 4207104</text>
</g>
<!-- n20&#45;&gt;n21 -->
<g id="edge21" class="edge">
<title>n20&#45;&gt;n21</title>
<path fill="none" stroke="black" d="M95,-217.59C95,-207.96 95,-197.02 95,-186.67"/>
<polygon fill="black" stroke="black" points="98.5,-186.86 95,-176.86 91.5,-186.86 98.5,-186.86"/>
</g>
<!-- n22 -->
<g id="node23" class="node">
<title>n22</title>
<ellipse fill="none" stroke="black" cx="95" cy="-44.99" rx="78.67" ry="28.99"/>
<text text-anchor="middle" x="95" y="-48.19" font-family="Times New Roman,serif" font-size="14.00">22: Detect</text>
<text text-anchor="middle" x="95" y="-31.69" font-family="Times New Roman,serif" font-size="14.00">Params: 3780328</text>
</g>
<!-- n21&#45;&gt;n22 -->
<g id="edge22" class="edge">
<title>n21&#45;&gt;n22</title>
<path fill="none" stroke="black" d="M95,-116.61C95,-106.98 95,-96.04 95,-85.69"/>
<polygon fill="black" stroke="black" points="98.5,-85.87 95,-75.87 91.5,-85.87 98.5,-85.87"/>
</g>
</g>
</svg>
